<?xml version="1.0" standalone="no"?>
<!DOCTYPE svg PUBLIC "-//W3C//DTD SVG 20010904//EN"
 "http://www.w3.org/TR/2001/REC-SVG-20010904/DTD/svg10.dtd">
<svg version="1.0" xmlns="http://www.w3.org/2000/svg"
 width="300.000000pt" height="232.000000pt" viewBox="0 0 300.000000 232.000000"
 preserveAspectRatio="xMidYMid meet">

<g transform="translate(0.000000,232.000000) scale(0.100000,-0.100000)"
fill="#000000" stroke="none">
<path d="M1465 2005 c-423 -40 -782 -76 -797 -80 -15 -4 -41 -23 -58 -41 -36
-41 -36 -43 -15 -309 16 -203 23 -225 76 -252 33 -17 84 -16 99 2 13 16 7 20
-34 27 -46 7 -55 41 -72 270 -15 201 -15 220 0 242 9 15 29 27 48 30 93 15
1591 147 1611 142 13 -3 29 -16 35 -28 10 -19 42 -353 42 -439 0 -15 -8 -36
-17 -48 -17 -20 -58 -25 -706 -85 -425 -39 -693 -68 -700 -75 -17 -17 9 -30
47 -25 17 2 328 32 691 65 705 64 695 63 738 121 21 28 21 29 5 257 -18 244
-23 266 -74 289 -39 19 -101 14 -919 -63z"/>
<path d="M2185 1915 c-8 -76 -3 -89 18 -49 14 27 15 27 21 6 4 -12 14 -22 23
-22 11 0 13 5 8 18 -5 9 -7 24 -7 32 7 79 9 75 -24 78 l-32 3 -7 -66z m36 12
c-8 -8 -11 -7 -11 4 0 9 3 19 7 23 4 4 9 2 11 -4 3 -7 -1 -17 -7 -23z"/>
<path d="M1927 1903 c-32 -82 -35 -108 -8 -75 22 25 41 29 41 7 0 -8 5 -15 11
-15 13 0 6 89 -9 130 -7 19 -12 12 -35 -47z"/>
<path d="M2100 1951 c-15 -29 -13 -108 4 -114 37 -14 78 60 61 112 -8 27 -51
28 -65 2z m36 -77 c-3 -8 -10 -14 -16 -14 -14 0 -13 47 3 73 12 21 12 21 15
-11 2 -19 1 -40 -2 -48z"/>
<path d="M2006 1928 c-15 -95 -14 -98 14 -98 38 0 50 18 50 77 0 52 -1 53 -30
53 -25 0 -30 -4 -34 -32z m44 3 c0 -6 -4 -13 -10 -16 -5 -3 -10 1 -10 9 0 9 5
16 10 16 6 0 10 -4 10 -9z m-2 -63 c-6 -18 -28 -21 -28 -4 0 9 7 16 16 16 9 0
14 -5 12 -12z"/>
<path d="M1829 1919 c-10 -20 -8 -26 15 -46 32 -27 26 -46 -11 -37 -19 5 -24
3 -21 -7 6 -18 45 -24 64 -9 20 17 18 44 -6 65 -25 22 -26 36 -2 32 9 -1 18 3
20 8 1 6 -8 11 -22 13 -17 2 -28 -4 -37 -19z"/>
<path d="M1589 1913 c-23 -4 -27 -10 -33 -50 -11 -80 -10 -83 29 -83 24 0 35
5 35 15 0 8 -9 15 -20 15 -11 0 -20 7 -20 15 0 8 7 15 15 15 8 0 15 5 15 10 0
6 -7 10 -16 10 -23 0 -11 24 14 28 12 2 22 10 22 18 0 8 -3 13 -7 13 -5 -1
-20 -4 -34 -6z"/>
<path d="M1650 1886 c0 -18 -3 -48 -6 -65 -6 -30 -6 -31 30 -31 26 0 36 4 36
16 0 12 -6 15 -21 11 -21 -6 -21 -3 -15 49 5 44 3 54 -9 54 -10 0 -15 -10 -15
-34z"/>
<path d="M1404 1893 c-17 -3 -23 -14 -28 -50 -11 -81 -10 -85 26 -81 35 3 52
28 19 28 -12 0 -21 6 -21 15 0 8 7 15 15 15 8 0 15 5 15 10 0 6 -7 10 -15 10
-8 0 -15 7 -15 15 0 9 9 15 25 15 16 0 25 6 25 15 0 15 -6 16 -46 8z"/>
<path d="M1337 1883 c-4 -3 -7 -21 -7 -39 0 -39 -9 -64 -22 -64 -6 0 -7 19 -3
50 6 42 4 50 -10 50 -13 0 -15 -10 -13 -62 3 -56 5 -63 25 -66 27 -4 38 17 48
86 6 48 0 64 -18 45z"/>
<path d="M1023 1805 c-19 -51 -27 -81 -20 -84 6 -2 12 0 14 5 2 5 8 16 13 24
9 13 12 12 25 -4 24 -32 28 -11 14 66 l-14 72 -32 -79z"/>
<path d="M1208 1863 c-22 -25 -31 -78 -18 -102 7 -14 21 -21 41 -21 17 0 28 4
25 8 -3 5 -1 26 5 47 18 65 -17 109 -53 68z m30 -50 c-3 -42 -28 -59 -28 -20
0 32 9 57 22 57 5 0 8 -17 6 -37z"/>
<path d="M950 1835 c0 -8 3 -15 8 -15 4 0 6 -18 4 -40 -4 -41 -22 -57 -22 -19
0 12 -5 19 -12 17 -7 -3 -13 -18 -13 -34 0 -24 4 -29 25 -29 31 0 50 35 50 93
0 35 -3 42 -20 42 -11 0 -20 -7 -20 -15z"/>
<path d="M845 1829 c-4 -6 -9 -37 -12 -70 -6 -63 -4 -66 45 -53 30 8 28 24 -3
24 -18 0 -23 4 -19 15 4 8 12 15 20 15 8 0 14 7 14 16 0 10 -6 14 -15 10 -9
-3 -15 0 -15 8 0 8 11 17 25 20 14 4 25 11 25 16 0 13 -57 13 -65 -1z"/>
<path d="M1508 1754 c-428 -45 -784 -85 -790 -87 -7 -3 1 -6 19 -6 43 -1 1545
158 1551 164 3 3 3 7 1 8 -2 2 -354 -33 -781 -79z"/>
<path d="M753 1818 c-6 -7 -13 -39 -16 -70 -5 -50 -3 -58 11 -58 48 0 86 74
62 120 -12 22 -42 26 -57 8z m37 -45 c0 -31 -15 -61 -26 -51 -9 10 5 78 16 78
6 0 10 -12 10 -27z"/>
<path d="M2168 1773 c-40 -3 -48 -8 -48 -24 0 -10 4 -19 9 -19 13 0 24 -109
12 -123 -5 -7 -6 -19 -2 -26 6 -10 25 -11 77 -6 38 4 72 9 75 11 10 6 -3 64
-15 64 -6 0 -20 -9 -29 -21 -21 -24 -41 -21 -45 9 -3 18 2 22 22 22 19 0 26 5
26 20 0 15 -7 20 -25 20 -18 0 -25 5 -25 20 0 13 7 20 20 20 11 0 20 -4 20
-10 0 -5 9 -10 20 -10 16 0 20 7 20 30 0 33 5 32 -112 23z"/>
<path d="M1978 1753 c-39 -3 -48 -8 -48 -23 0 -10 5 -22 11 -26 8 -5 10 -31 6
-80 l-5 -74 39 0 c41 0 65 24 40 40 -7 4 -11 18 -9 31 4 23 5 23 17 -6 6 -16
14 -36 16 -43 3 -8 17 -12 37 -10 28 2 34 8 36 30 2 20 -1 26 -10 23 -17 -7
-42 45 -28 59 14 14 12 52 -2 64 -19 14 -47 19 -100 15z m52 -48 c14 -16 6
-35 -16 -35 -8 0 -14 10 -14 25 0 28 12 32 30 10z"/>
<path d="M1830 1721 c0 -11 5 -23 11 -27 8 -4 10 -32 7 -80 l-5 -74 44 0 c36
0 43 3 43 20 0 11 -4 20 -9 20 -14 0 -23 110 -10 126 17 21 1 34 -42 34 -32 0
-39 -3 -39 -19z"/>
<path d="M1698 1723 c-30 -3 -38 -9 -38 -24 0 -10 5 -19 11 -19 9 0 10 -23 6
-80 l-5 -80 28 0 c16 0 35 3 44 6 17 7 22 34 6 34 -5 0 -10 11 -10 25 0 17 5
25 18 25 32 0 62 29 62 60 0 32 -32 61 -65 58 -11 -1 -37 -3 -57 -5z m67 -58
c0 -11 -8 -21 -17 -23 -14 -3 -18 3 -18 23 0 20 4 26 18 23 9 -2 17 -12 17
-23z"/>
<path d="M1501 1693 c-25 -17 -28 -65 -5 -87 8 -9 27 -19 42 -22 46 -10 53
-14 47 -24 -9 -15 -45 -12 -51 4 -3 8 -15 11 -30 8 -24 -4 -30 -24 -18 -56 7
-18 40 -22 46 -5 2 7 12 7 29 1 17 -7 34 -6 56 3 63 27 48 91 -26 114 -24 7
-41 18 -41 26 0 19 24 19 40 0 7 -8 21 -15 31 -15 15 0 19 7 19 34 l0 34 -59
0 c-36 0 -68 -6 -80 -15z"/>
<path d="M1380 1671 c0 -11 5 -21 11 -23 6 -2 9 -15 7 -28 -3 -24 -5 -23 -33
17 -26 37 -35 43 -69 43 -37 0 -38 -1 -30 -27 4 -16 8 -61 8 -100 l1 -73 37 0
c31 0 38 4 38 20 0 11 -4 20 -10 20 -5 0 -10 12 -10 28 0 27 1 27 36 -15 32
-38 69 -55 85 -39 2 3 2 39 -1 81 -3 42 -2 79 2 82 5 2 8 11 8 19 0 10 -12 14
-40 14 -33 0 -40 -3 -40 -19z"/>
<path d="M1160 1651 c0 -11 5 -23 11 -27 8 -4 10 -32 7 -80 l-5 -74 44 0 c36
0 43 3 43 19 0 11 -5 21 -12 23 -7 3 -11 32 -12 81 l-1 77 -37 0 c-31 0 -38
-4 -38 -19z"/>
<path d="M948 1643 c-19 -3 -28 -10 -28 -23 0 -10 4 -20 9 -22 11 -4 20 -118
9 -118 -4 0 -8 -9 -8 -20 0 -19 4 -20 68 -14 90 8 92 9 92 44 0 25 -4 30 -25
30 -16 0 -25 -6 -25 -15 0 -8 -9 -15 -20 -15 -30 0 -26 36 5 44 36 9 32 36 -5
36 -23 0 -30 4 -30 20 0 13 7 20 20 20 11 0 20 -4 20 -10 0 -5 11 -10 25 -10
21 0 25 5 25 30 0 30 -1 30 -52 29 -29 -1 -65 -4 -80 -6z"/>
<path d="M865 1634 c-11 -2 -46 -6 -77 -9 l-58 -6 0 -35 c0 -27 4 -34 19 -34
11 0 21 9 25 23 5 18 8 20 16 7 13 -20 13 -120 0 -120 -5 0 -10 -7 -10 -15 0
-11 12 -15 50 -15 43 0 50 3 50 20 0 11 -4 20 -9 20 -15 0 -26 109 -12 123 8
8 11 5 11 -11 0 -15 6 -22 20 -22 17 0 20 7 20 40 0 26 -4 40 -12 39 -7 -1
-22 -3 -33 -5z"/>
<path d="M1299 971 c-51 -34 -74 -70 -66 -100 4 -18 1 -21 -29 -21 -27 0 -34
-4 -34 -19 0 -17 5 -19 37 -14 l37 6 -48 -56 c-27 -32 -52 -57 -57 -57 -5 0
-39 -14 -77 -30 l-67 -31 8 -112 c4 -61 5 -129 2 -149 -4 -29 -2 -38 10 -38 9
0 19 -17 26 -46 23 -90 97 -134 226 -134 179 1 376 94 561 265 35 33 67 54 71
49 5 -5 19 -26 33 -47 l25 -38 61 46 c74 56 122 124 122 174 0 42 -22 78 -55
91 -22 8 -22 10 -9 52 7 24 16 61 19 83 l7 40 34 -37 c36 -40 38 -39 48 8 6
27 3 35 -21 54 -22 17 -37 21 -78 17 -27 -2 -60 -8 -72 -12 -18 -6 -23 -4 -23
11 0 29 -12 42 -45 49 l-30 7 25 -14 c14 -7 25 -22 25 -33 0 -13 12 -25 33
-35 l34 -15 -22 -28 -22 -28 -34 20 -34 20 6 -23 c5 -20 1 -24 -26 -30 -18 -3
-36 -4 -40 -1 -4 3 -27 -2 -50 -10 -24 -8 -44 -14 -45 -13 -2 2 -13 27 -25 56
l-23 53 -34 -33 c-21 -20 -32 -40 -30 -50 3 -10 -2 -19 -12 -22 -9 -2 -26 -7
-38 -11 -20 -6 -23 -3 -23 23 l0 30 -37 -19 c-44 -22 -69 -23 -102 -5 -23 13
-27 12 -44 -10 -40 -52 -110 -70 -121 -31 -10 36 -7 44 17 51 21 6 20 7 -10
21 -45 19 -44 56 1 101 39 39 61 43 77 13 11 -22 1 -37 -26 -40 -5 0 5 -5 24
-11 22 -6 36 -6 40 1 3 5 18 12 33 16 23 6 29 2 43 -24 8 -17 22 -31 30 -31
20 0 19 10 -5 40 -26 33 -25 37 6 44 21 6 33 1 55 -20 16 -15 29 -23 29 -18 0
18 90 45 111 34 10 -6 19 -15 19 -20 0 -6 5 -10 10 -10 20 0 9 31 -15 42 -20
9 -35 7 -79 -9 l-55 -20 -21 22 -22 23 -70 -26 c-70 -26 -71 -26 -84 -7 -40
60 -35 59 -85 26z m747 -175 c-17 -40 -26 -43 -61 -20 -23 15 -27 15 -68 -9
-24 -14 -49 -33 -57 -41 -18 -23 -26 -20 -40 14 -7 17 -18 30 -24 31 -6 0 3 7
19 14 17 8 37 12 46 9 8 -2 37 2 64 11 32 9 53 11 61 5 8 -7 20 2 40 32 28 40
29 41 32 16 2 -14 -4 -42 -12 -62z m-313 19 c9 -20 17 -40 17 -45 0 -10 -113
-90 -128 -90 -5 0 -17 9 -27 20 -20 22 -45 20 -107 -12 l-38 -18 0 24 0 25
-59 -20 -59 -20 -7 -53 c-5 -46 -9 -53 -25 -49 -16 4 -18 12 -13 53 5 40 2 51
-16 69 -11 11 -32 21 -46 21 -30 0 -31 4 -4 41 24 34 34 31 43 -12 5 -29 8
-30 38 -24 39 8 100 42 111 61 6 11 13 12 29 3 19 -10 76 -7 112 7 12 4 16 0
16 -15 0 -24 5 -25 66 -10 39 10 44 15 44 39 0 25 9 36 31 39 3 1 13 -15 22
-34z m259 -57 l30 -21 -23 -13 c-23 -13 -22 -13 17 -14 56 0 94 -30 94 -75 0
-43 -51 -118 -111 -161 l-47 -34 -33 52 c-18 29 -34 54 -35 56 -2 3 -54 -9
-106 -24 -13 -4 -18 3 -24 30 -5 31 -10 36 -34 36 -16 0 -36 3 -45 7 -12 4 -8
-7 14 -37 17 -23 28 -46 25 -51 -8 -14 -104 -39 -149 -39 -22 0 -57 9 -78 19
l-37 19 0 -29 c0 -28 -1 -28 -44 -23 -41 6 -45 4 -72 -30 -16 -20 -32 -36 -36
-36 -4 0 -38 27 -76 60 -39 33 -72 60 -74 60 -3 0 -3 -13 0 -30 2 -16 8 -28
12 -27 5 1 35 -21 68 -50 l59 -52 43 44 c41 42 46 44 87 38 39 -5 43 -4 43 16
0 12 4 20 9 16 23 -14 105 -22 149 -14 45 9 122 37 122 46 0 3 -9 18 -21 35
-22 30 -20 44 5 35 8 -3 16 -18 18 -34 3 -24 7 -28 33 -26 l30 2 -40 -35 c-58
-50 -228 -132 -310 -149 -81 -17 -166 -19 -214 -5 -45 13 -86 40 -73 49 7 4 8
19 2 41 -7 32 -8 33 -9 8 -1 -20 -6 -28 -20 -28 -10 0 -39 -3 -64 -6 l-45 -6
-6 108 c-4 60 -9 121 -11 136 -4 25 0 29 75 57 93 36 149 40 175 11 17 -19 17
-32 0 -86 -5 -18 -1 -23 26 -33 47 -16 49 -15 49 27 0 63 9 78 49 91 52 15 51
15 51 -21 l0 -31 23 21 c12 12 42 28 67 37 43 15 44 15 69 -9 l26 -24 74 49
c41 27 80 49 86 49 7 0 20 -18 30 -41 18 -40 19 -40 35 -20 13 18 98 81 108
81 2 0 18 -10 34 -22z"/>
<path d="M1907 730 c-45 -28 -67 -66 -52 -89 3 -6 33 -11 65 -11 34 0 62 -5
66 -12 7 -11 -40 -61 -66 -70 -10 -3 -7 -15 12 -47 l25 -42 44 37 c85 71 114
133 80 175 -17 21 -27 24 -80 22 -64 -2 -75 6 -40 31 12 8 18 19 14 25 -9 16
-16 14 -68 -19z"/>
<path d="M1687 684 c-53 -35 -97 -68 -97 -72 0 -23 24 -31 50 -15 20 12 39 14
74 9 42 -7 47 -11 53 -37 3 -16 7 -29 10 -29 9 0 93 23 93 25 0 1 -19 43 -43
93 l-43 91 -97 -65z m58 -14 c-3 -5 -1 -10 6 -10 10 0 10 -3 2 -11 -7 -7 -19
-9 -28 -5 -14 5 -15 9 -5 21 14 17 35 21 25 5z"/>
<path d="M1105 665 c-33 -14 -61 -25 -62 -25 -5 0 -3 -87 4 -164 l6 -77 41 7
c23 3 42 7 43 8 2 2 -6 49 -16 107 -14 77 -16 106 -8 111 37 24 59 -11 34 -53
l-16 -28 84 -70 84 -71 25 32 c21 28 30 32 65 30 l41 -3 0 46 0 45 29 -32 c24
-27 36 -32 87 -36 66 -5 144 12 144 31 -1 31 -26 45 -78 44 -36 -2 -56 3 -68
14 -22 23 -10 54 26 69 24 10 28 15 19 26 -6 8 -18 14 -27 14 -30 0 -97 -39
-113 -66 l-17 -27 -7 41 c-4 23 -8 42 -10 42 -2 0 -15 -4 -28 -9 -21 -8 -25
-18 -31 -72 -3 -34 -8 -64 -9 -66 -2 -2 -21 4 -43 13 -21 9 -49 20 -62 25
l-23 9 22 29 c15 21 20 37 15 55 -6 23 -11 26 -49 26 -23 0 -69 -12 -102 -25z"/>
<path d="M1573 638 c-26 -13 -30 -43 -7 -52 24 -9 25 -8 12 14 -11 16 -9 22 7
34 23 18 19 19 -12 4z"/>
<path d="M1870 604 c0 -14 22 -44 33 -44 7 0 26 11 42 25 l30 24 -52 1 c-29 0
-53 -3 -53 -6z"/>
<path d="M1296 940 c-47 -41 -47 -67 0 -86 29 -12 34 -17 24 -29 -7 -8 -19
-15 -27 -15 -10 0 -12 -6 -7 -22 9 -30 8 -30 37 -23 45 12 79 51 75 88 -3 28
-8 33 -43 41 -53 13 -54 14 -25 36 19 14 22 22 14 30 -9 9 -21 3 -48 -20z"/>
<path d="M1888 963 c7 -3 16 -2 19 1 4 3 -2 6 -13 5 -11 0 -14 -3 -6 -6z"/>
<path d="M1835 948 c-11 -7 -36 -12 -55 -11 -27 1 -29 0 -8 -4 17 -2 34 -16
45 -34 17 -28 40 -41 30 -16 -14 38 -17 57 -9 57 5 0 14 -25 21 -55 11 -48 15
-55 37 -55 l24 0 -19 50 c-19 49 -19 50 0 50 13 0 18 -6 16 -22 -1 -15 8 -27
31 -41 31 -18 35 -18 50 -4 15 15 13 18 -16 28 -24 8 -31 16 -27 29 9 28 -16
41 -56 30 -43 -13 -58 -12 -39 0 21 14 -1 12 -25 -2z"/>
<path d="M1510 940 c-12 -8 -12 -11 3 -28 21 -23 22 -48 1 -56 -21 -8 -31 -1
-49 34 -11 21 -20 27 -35 23 -16 -4 -19 -11 -14 -32 17 -68 50 -83 119 -52 52
23 59 51 24 95 -22 29 -27 30 -49 16z"/>
<path d="M1628 928 c-26 -9 -28 -13 -28 -70 0 -51 2 -59 18 -56 9 2 18 13 20
26 2 12 14 29 26 37 25 16 49 59 39 69 -9 9 -44 6 -75 -6z m32 -22 c0 -16 -18
-31 -27 -22 -8 8 5 36 17 36 5 0 10 -6 10 -14z"/>
<path d="M1742 912 c-10 -7 -8 -19 9 -59 l21 -51 44 15 c35 12 42 18 34 28 -6
7 -19 11 -29 8 -10 -3 -22 0 -25 6 -4 6 0 11 9 11 9 0 13 5 10 10 -3 6 -16 10
-28 10 -22 1 -22 1 -3 15 19 15 19 15 -5 15 -13 0 -30 -4 -37 -8z"/>
<path d="M2065 430 c3 -5 8 -10 11 -10 2 0 4 5 4 10 0 6 -5 10 -11 10 -5 0 -7
-4 -4 -10z"/>
</g>
</svg>
